#!OML:ASF H:\Dans Jumps\Project 1\Capture day 1\Session 1\subject.ASF
:FULLY-SPECIFIED
:DEGREES
244
root -0.0368045 11.8344 -16.1434 20.1658 2.07856 -1.20184
lowerback 50.3477 0.829543 0.215519
upperback 6.35126 1.64811 2.98779
thorax -13.732 0.651815 2.44144
lowerneck -23.525 0.172561 -1.82081
upperneck 2.26571 0.997302 -2.69282
head 4.34215 0.27922 -0.468195
rclavicle -9.14409e-015 7.7526e-015
rhumerus -62.4525 -22.1793 -40.2208
rradius 16.3291
rwrist 51.0873
rhand -16.3449 -20.6112
rfingers 7.12502
rthumb 9.8674 -50.36
lclavicle -9.14409e-015 7.7526e-015
lhumerus -48.961 18.872 58.3022
lradius 6.35938
lwrist -6.59813
lhand -23.71 -4.93409
lfingers 7.12502
lthumb 2.75746 25.0278
rfemur -86.4415 -4.02325 24.0651
rtibia 106.61
rfoot -37.1019 -16.5792
rtoes -3.06662
lfemur -86.9514 6.43797 -21.7823
ltibia 105.71
lfoot -33.8358 17.5309
ltoes -8.03067
245
root -0.0389599 11.9413 -16.0647 20.191 2.11088 -1.13058
lowerback 49.5429 0.88148 0.110304
upperback 6.30343 1.6563 3.00949
thorax -13.6685 0.664977 2.50766
lowerneck -23.6102 0.118543 -1.85788
upperneck 2.66337 0.935921 -2.54417
head 4.47884 0.25132 -0.421552
rclavicle -6.36111e-015 -2.04748e-014
rhumerus -60.3291 -23.2337 -41.215
rradius 16.3402
rwrist 50.8394
rhand -16.7424 -20.7526
rfingers 7.12502
rthumb 9.48393 -50.5192
lclavicle -6.36111e-015 -2.04748e-014
lhumerus -46.6393 19.7093 59.1718
lradius 6.28332
lwrist -6.74007
lhand -24.1267 -5.04301
lfingers 7.12502
lthumb 2.355 24.9237
rfemur -85.3881 -3.92183 23.8773
rtibia 105.76
rfoot -37.1896 -16.8153
rtoes -3.47117
lfemur -85.8767 6.17659 -21.6309
ltibia 104.827
lfoot -33.828 17.8618
ltoes -8.50721
246
root -0.0414567 12.0543 -15.984 20.2162 2.14436 -1.05028
lowerback 47.8001 0.956905 -0.077917
upperback 7.26873 1.64914 3.06207
thorax -13.7028 0.691175 2.62207
lowerneck -23.7285 0.0517344 -1.89206
upperneck 3.08983 0.855458 -2.37533
head 4.62969 0.215261 -0.370986
rclavicle 7.95139e-015 4.77083e-015
rhumerus -58.1004 -24.3186 -42.3139
rradius 16.3599
rwrist 50.8042
rhand -17.0636 -20.8091
rfingers 7.12502
rthumb 9.17396 -50.5896
lclavicle 7.95139e-015 4.77083e-015
lhumerus -44.2688 20.5312 60.1061
lradius 6.29316
lwrist -6.7318
lhand -24.5949 -5.30198
lfingers 7.12502
lthumb 1.90283 24.6693
rfemur -84.297 -3.83181 23.6891
rtibia 104.843
rfoot -37.2346 -17.0644
rtoes -3.95819
lfemur -84.7566 5.9216 -21.4959
ltibia 103.872
lfoot -33.8 18.1689
ltoes -9.01897
247
root -0.0439111 12.1733 -15.9014 20.2412 2.18223 -0.97398
lowerback 46.9188 1.00486 -0.19804
upperback 7.18371 1.64961 3.07581
thorax -13.5778 0.701706 2.69938
lowerneck -23.8694 -0.0124936 -1.90892
upperneck 3.54622 0.777498 -2.24442
head 4.79433 0.1778 -0.335127
rclavicle 7.95139e-015 -1.15295e-014
rhumerus -55.7659 -25.3951 -43.524
rradius 16.4247
rwrist 50.944
rhand -17.2175 -20.7863
rfingers 7.12502
rthumb 9.02544 -50.5733
lclavicle 7.95139e-015 -1.15295e-014
lhumerus -41.8774 21.3361 61.1043
lradius 6.39148
lwrist -6.52985
lhand -25.0786 -5.70588
lfingers 7.12502
lthumb 1.43565 24.269
rfemur -83.1672 -3.74961 23.5112
rtibia 103.857
rfoot -37.2483 -17.3033
rtoes -4.46417
lfemur -83.596 5.68394 -21.3671
ltibia 102.846
lfoot -33.7575 18.4402
ltoes -9.56139
